<svg xmlns="http://www.w3.org/2000/svg" width="128" height="128" version="1.0" viewBox="0 0 96 96">
          <path fill="#b89b5a"
            d="M5.9 14.1c-1.8 1.8-2 2.9-1.5 6.8C6 32.8 13.2 43.4 22.7 47.8c3.4 1.7 5.7 3.7 8.1 7.3 1.8 2.8 5.3 6.4 7.7 8.1l4.5 3.2-5 5.2c-2.8 2.9-5 5.8-5 6.4 0 .6-1.2 1.5-2.6 2-1.4.6-2.4 1.6-2.1 2.3.5 1.7 38.9 1.7 39.4 0 .3-.7-.7-1.7-2.1-2.3-1.4-.5-2.6-1.4-2.6-2 0-.6-2.2-3.5-5-6.4l-5-5.2 4.5-3.2c2.4-1.7 5.9-5.3 7.7-8.1 2.3-3.5 4.7-5.6 8-7.2 9.3-4.4 16.9-15.3 18.4-26.5.5-4.5.3-5.5-1.5-7.3C88 12 87.4 12 48 12S8 12 5.9 14.1zm14.6 9.5c.4 4.2 1.5 10.5 2.5 14 .9 3.5 1.4 6.4.9 6.4-2.4 0-9.7-7.2-12-11.9C9.1 26.6 7.4 18.8 8.5 17c.3-.5 3-1 5.9-1h5.4l.7 7.6zm67.2-6c.9 2.4-2.5 13.4-5.5 17.8-2.3 3.4-8.6 8.6-10.3 8.6-.3 0 .2-2.9 1.1-6.4 1-3.5 2.1-9.8 2.5-14l.7-7.6h5.4c4.1 0 5.6.4 6.1 1.6z" />
        </svg>