<svg xmlns="http://www.w3.org/2000/svg" width="66.667" height="66.667" version="1.0" viewBox="0 0 50 50"><path fill="#9e1e1e" d="M15.5 4.4C9.5 7.2 6.8 10 4.1 16 .5 23.9 2.2 34.3 8.3 40.9 11.6 44.5 19.8 48 25 48c5.2 0 13.4-3.5 16.7-7.1 3.4-3.7 6.3-11 6.3-15.9 0-5.2-3.5-13.4-7.1-16.7C37.2 4.9 29.9 2 25 2c-2.7 0-6.5 1-9.5 2.4zm4 16.6c0 1.8-.6 2.6-2.3 2.8-1.3.2-2.5-.3-2.8-1.2-1-2.6.4-4.8 2.8-4.4 1.7.2 2.3 1 2.3 2.8zm16 0c0 1.8-.6 2.6-2.3 2.8-2.4.4-3.8-1.8-2.8-4.4.3-.9 1.5-1.4 2.8-1.2 1.7.2 2.3 1 2.3 2.8zm-3.9 9.6c3.4 1.6 5 3.1 4.2 4-.2.2-2.2-.5-4.3-1.6-2.2-1.1-5.1-2-6.5-2-1.4 0-4.3.9-6.5 2-3.7 1.9-5.8 1.9-3.9 0 4-4 11.4-5 17-2.4z"/></svg>