<svg xmlns="http://www.w3.org/2000/svg" version="1.0" viewBox="74.94 75.16 361.56 365.21"><g fill="#9e1e1e" stroke="none"><path d="M236.6 76.1c-14.1 2.1-31.6 8.3-44.3 15.6-37.4 21.9-60.7 59-63.9 102l-.7 9.3H109c-17.6 0-18.9.1-23.1 2.3-8.9 4.8-13.4 16.7-9.6 25.8.8 1.9 12.7 21.1 26.6 42.6 23 35.8 25.1 39.4 25.1 43.4 0 14.6 5.7 36.6 13.5 52.4 18 36.4 53.1 62.5 93.5 69.6 10.6 1.9 33.5 1.6 44.2-.4 47.4-9.3 86.2-44.1 99.3-89.2 2.8-9.8 5.5-25.4 5.5-32.4 0-4.1 2-7.6 26.3-45l26.2-40.6v-7.6c0-7-.3-8.1-3.1-12-1.8-2.4-5.1-5.4-7.5-6.6-3.9-2.2-5.4-2.3-22.9-2.3h-18.7l-.7-9.3c-4.5-60.1-50.2-109.4-109-117.6-8.9-1.3-29.4-1.2-38 0zm45.6 23.3c36.7 9.4 65.7 37.5 76.2 73.9 1.4 4.7 2.9 12.8 3.5 18 1.4 12.7 1.4 116.7 0 129.4-4.9 44.3-36.2 80.4-79.7 92-8.6 2.3-11.6 2.6-26.2 2.6-14.7 0-17.6-.3-26.5-2.6-33.4-8.9-62-34.7-73.3-66.1-6.5-17.9-6.5-17.3-6.9-83.1-.5-64.8 0-75.4 4.2-90 11.7-40.3 45.4-69.9 87.1-76.5 10.3-1.6 30.7-.4 41.6 2.4zM128 248.7c0 13.5-.2 24.4-.3 24.2-.2-.2-4.4-6.7-9.4-14.4-4.9-7.7-12-18.6-15.6-24.3L96 224h32v24.7zm282.6-16.5c-2.9 4.6-10.1 15.7-16 24.7L384 273.3V224h32l-5.4 8.2z"/><path d="M198 171.9c-10.1 3.3-18.7 10.7-23.6 20.1-2.7 5-2.9 6.4-2.9 16 0 10 .1 10.8 3.4 16.8 3.9 7.2 9.7 12.9 17.3 16.9 4.8 2.6 6.2 2.8 15.8 2.8 10 0 10.8-.1 16.8-3.4 7.5-4.1 13.5-10.3 17-17.9 2.4-5 2.7-7 2.7-15.7 0-9.5-.2-10.3-3.4-16.3-3.9-7.2-10.8-13.9-17.8-17.2-3.7-1.8-6.9-2.4-13.8-2.6-4.9-.2-10.1 0-11.5.5zm16.3 21.5c10.3 4.3 12.8 17.7 4.8 25.7-6.5 6.5-15.7 6.5-22.2 0-12.4-12.3 1.3-32.5 17.4-25.7zM294 171.9c-10.1 3.3-18.7 10.7-23.6 20.1-2.7 5-2.9 6.4-2.9 16 0 10 .1 10.8 3.4 16.8 3.9 7.2 9.7 12.9 17.3 16.9 4.8 2.6 6.2 2.8 15.8 2.8 10 0 10.8-.1 16.8-3.4 7.5-4.1 13.5-10.3 17-17.9 2.4-5 2.7-7 2.7-15.7 0-9.5-.2-10.3-3.4-16.3-3.9-7.2-10.8-13.9-17.8-17.2-3.7-1.8-6.9-2.4-13.8-2.6-4.9-.2-10.1 0-11.5.5zm16.3 21.5c10.3 4.3 12.8 17.7 4.8 25.7-11.2 11.3-29.6 1.2-26.7-14.6 1.8-9.4 12.8-15 21.9-11.1zM229.4 268.1c-3.4 1.7-5.7 6.6-5.1 10.6 1.2 7.4 8.9 11.3 15.2 7.8 9.3-4.9 6.1-19.6-4.2-19.4-2.1 0-4.7.5-5.9 1zM269.9 269.9c-4.9 5-3.6 13.3 2.6 16.6 6.3 3.5 14-.4 15.2-7.8 1.5-9.7-10.8-15.8-17.8-8.8z"/><path d="M185.3 282.9c-3.6 2.3-3.1.9-11.8 33.8-3 11.7-5.5 23-5.5 25 0 4 2.1 7.4 5.7 9.2 3.3 1.7 161.9 1.5 165.3-.2 1.4-.7 3.4-2.9 4.5-4.9l1.9-3.6-7.7-27.8c-8.2-29.7-9.2-31.8-15.4-33-6.3-1.2-8.2.5-27.4 25.7L276.5 331h-41l-18.2-23.4c-10-12.8-18.9-23.9-19.7-24.5-2.8-2.3-8.8-2.4-12.3-.2zM203 324l5.2 6.5-7.7.3c-4.3.2-7.9.1-8.1 0-.3-.4 2-10.4 3.2-13.7.6-1.7.6-1.6 7.4 6.9zm115-.5c1.1 3.8 1.8 7 1.6 7.2-.2.2-3.8.3-8.1.1l-7.7-.3 5.7-7.3c3.1-4 5.9-7.1 6.1-6.9.3.2 1.3 3.5 2.4 7.2z"/></g></svg>